<svg xmlns="http://www.w3.org/2000/svg" viewBox="0 0 64 64" width="64" height="64" role="img">

  <path d="M32 8l16 6v14c0 12-8 20-16 24-8-4-16-12-16-24V14l16-6z" stroke="currentColor" stroke-width="1.75" stroke-linecap="round" stroke-linejoin="round" fill="none" />
  <path d="M32 38c-4-3-7-6-7-10 0-2.5 2-4.5 4.5-4.5 1.2 0 2.4.6 2.5 1.8.1-1.2 1.3-1.8 2.5-1.8 2.5 0 4.5 2 4.5 4.5 0 4-3 7-7 10z" stroke="currentColor" stroke-width="1.75" stroke-linecap="round" stroke-linejoin="round" fill="none" />

</svg>